# xmcd CD database file generated by Grip 3.2.0
# 
# Track frame offsets:
#       150
#       18283
#       32690
#       45985
#       74683
#       85188
#       103803
#       117888
#       134535
#       147120
# 
# Disc length: 2051 seconds
# 
# Revision: 1
# Processed by: cddbd v1.5.2PL0 Copyright (c) Steve Scherf et al.
# Submitted via: Grip 3.2.0
# 
DISCID=8508010a
DTITLE=Johnny Cash - At San Quentin
DYEAR=1969
DGENRE=Country
TTITLE0=Wanted Man
TTITLE1=Wreck of the Old '97
TTITLE2=I Walk the Line
TTITLE3=Darlin' Companion
TTITLE4=Starkville City Jail
TTITLE5=San Quentin
TTITLE6=San Quentin (Encore)
TTITLE7=A Boy Named Sue
TTITLE8=Peace in the Valley for Me
TTITLE9=Folsom Prison Blues
EXTD=(c)1969 Sony Music Entertainment UK\nColumbia Collector's Choice Serie
EXTD=s\nupc 5018665258624
EXTT0=
EXTT1=
EXTT2=
EXTT3=
EXTT4=
EXTT5=
EXTT6=
EXTT7=
EXTT8=
EXTT9=
PLAYORDER=
